TITLE ""
FILE "LR_black_phrase_E_S08.mp3" MP3
  TRACK 01 AUDIO
    TITLE "LR_black_phrase_E_S08_001"
    INDEX 01 00:00:00
  TRACK 02 AUDIO
    TITLE "LR_black_phrase_E_S08_002"
    INDEX 01 00:00:14
  TRACK 03 AUDIO
    TITLE "LR_black_phrase_E_S08_003"
    INDEX 01 00:01:14
  TRACK 04 AUDIO
    TITLE "LR_black_phrase_E_S08_004"
    INDEX 01 00:01:45
  TRACK 05 AUDIO
    TITLE "LR_black_phrase_E_S08_005"
    INDEX 01 00:03:38
  TRACK 06 AUDIO
    TITLE "LR_black_phrase_E_S08_006"
    INDEX 01 00:04:18
  TRACK 07 AUDIO
    TITLE "LR_black_phrase_E_S08_007"
    INDEX 01 00:06:11
  TRACK 08 AUDIO
    TITLE "LR_black_phrase_E_S08_008"
    INDEX 01 00:07:14
  TRACK 09 AUDIO
    TITLE "LR_black_phrase_E_S08_009"
    INDEX 01 00:08:29
  TRACK 10 AUDIO
    TITLE "LR_black_phrase_E_S08_010"
    INDEX 01 00:08:59
  TRACK 11 AUDIO
    TITLE "LR_black_phrase_E_S08_011"
    INDEX 01 00:11:08
  TRACK 12 AUDIO
    TITLE "LR_black_phrase_E_S08_012"
    INDEX 01 00:11:63
  TRACK 13 AUDIO
    TITLE "LR_black_phrase_E_S08_013"
    INDEX 01 00:14:10
  TRACK 14 AUDIO
    TITLE "LR_black_phrase_E_S08_014"
    INDEX 01 00:15:10
  TRACK 15 AUDIO
    TITLE "LR_black_phrase_E_S08_015"
    INDEX 01 00:16:21
  TRACK 16 AUDIO
    TITLE "LR_black_phrase_E_S08_016"
    INDEX 01 00:16:43
  TRACK 17 AUDIO
    TITLE "LR_black_phrase_E_S08_017"
    INDEX 01 00:19:04
  TRACK 18 AUDIO
    TITLE "LR_black_phrase_E_S08_018"
    INDEX 01 00:19:49
  TRACK 19 AUDIO
    TITLE "LR_black_phrase_E_S08_019"
    INDEX 01 00:22:12
  TRACK 20 AUDIO
    TITLE "LR_black_phrase_E_S08_020"
    INDEX 01 00:23:07
  TRACK 21 AUDIO
    TITLE "LR_black_phrase_E_S08_021"
    INDEX 01 00:24:28
  TRACK 22 AUDIO
    TITLE "LR_black_phrase_E_S08_022"
    INDEX 01 00:24:58
  TRACK 23 AUDIO
    TITLE "LR_black_phrase_E_S08_023"
    INDEX 01 00:27:17
  TRACK 24 AUDIO
    TITLE "LR_black_phrase_E_S08_024"
    INDEX 01 00:27:62
  TRACK 25 AUDIO
    TITLE "LR_black_phrase_E_S08_025"
    INDEX 01 00:30:23
  TRACK 26 AUDIO
    TITLE "LR_black_phrase_E_S08_026"
    INDEX 01 00:31:23
  TRACK 27 AUDIO
    TITLE "LR_black_phrase_E_S08_027"
    INDEX 01 00:32:34
  TRACK 28 AUDIO
    TITLE "LR_black_phrase_E_S08_028"
    INDEX 01 00:32:65
  TRACK 29 AUDIO
    TITLE "LR_black_phrase_E_S08_029"
    INDEX 01 00:34:39
  TRACK 30 AUDIO
    TITLE "LR_black_phrase_E_S08_030"
    INDEX 01 00:35:20
  TRACK 31 AUDIO
    TITLE "LR_black_phrase_E_S08_031"
    INDEX 01 00:36:69
  TRACK 32 AUDIO
    TITLE "LR_black_phrase_E_S08_032"
    INDEX 01 00:37:74
  TRACK 33 AUDIO
    TITLE "LR_black_phrase_E_S08_033"
    INDEX 01 00:39:22
  TRACK 34 AUDIO
    TITLE "LR_black_phrase_E_S08_034"
    INDEX 01 00:39:51
  TRACK 35 AUDIO
    TITLE "LR_black_phrase_E_S08_035"
    INDEX 01 00:42:34
  TRACK 36 AUDIO
    TITLE "LR_black_phrase_E_S08_036"
    INDEX 01 00:43:12
  TRACK 37 AUDIO
    TITLE "LR_black_phrase_E_S08_037"
    INDEX 01 00:45:70
  TRACK 38 AUDIO
    TITLE "LR_black_phrase_E_S08_038"
    INDEX 01 00:46:73
  TRACK 39 AUDIO
    TITLE "LR_black_phrase_E_S08_039"
    INDEX 01 00:48:31
  TRACK 40 AUDIO
    TITLE "LR_black_phrase_E_S08_040"
    INDEX 01 00:48:52
  TRACK 41 AUDIO
    TITLE "LR_black_phrase_E_S08_041"
    INDEX 01 00:51:16
  TRACK 42 AUDIO
    TITLE "LR_black_phrase_E_S08_042"
    INDEX 01 00:51:61
  TRACK 43 AUDIO
    TITLE "LR_black_phrase_E_S08_043"
    INDEX 01 00:54:24
  TRACK 44 AUDIO
    TITLE "LR_black_phrase_E_S08_044"
    INDEX 01 00:55:17
  TRACK 45 AUDIO
    TITLE "LR_black_phrase_E_S08_045"
    INDEX 01 00:56:36
  TRACK 46 AUDIO
    TITLE "LR_black_phrase_E_S08_046"
    INDEX 01 00:56:60
  TRACK 47 AUDIO
    TITLE "LR_black_phrase_E_S08_047"
    INDEX 01 00:58:55
  TRACK 48 AUDIO
    TITLE "LR_black_phrase_E_S08_048"
    INDEX 01 00:59:25
  TRACK 49 AUDIO
    TITLE "LR_black_phrase_E_S08_049"
    INDEX 01 01:01:20
  TRACK 50 AUDIO
    TITLE "LR_black_phrase_E_S08_050"
    INDEX 01 01:02:19
  TRACK 51 AUDIO
    TITLE "LR_black_phrase_E_S08_051"
    INDEX 01 01:03:34
  TRACK 52 AUDIO
    TITLE "LR_black_phrase_E_S08_052"
    INDEX 01 01:03:66
  TRACK 53 AUDIO
    TITLE "LR_black_phrase_E_S08_053"
    INDEX 01 01:05:57
  TRACK 54 AUDIO
    TITLE "LR_black_phrase_E_S08_054"
    INDEX 01 01:06:37
  TRACK 55 AUDIO
    TITLE "LR_black_phrase_E_S08_055"
    INDEX 01 01:08:28
  TRACK 56 AUDIO
    TITLE "LR_black_phrase_E_S08_056"
    INDEX 01 01:09:35
  TRACK 57 AUDIO
    TITLE "LR_black_phrase_E_S08_057"
    INDEX 01 01:10:44
  TRACK 58 AUDIO
    TITLE "LR_black_phrase_E_S08_058"
    INDEX 01 01:10:72
  TRACK 59 AUDIO
    TITLE "LR_black_phrase_E_S08_059"
    INDEX 01 01:12:61
  TRACK 60 AUDIO
    TITLE "LR_black_phrase_E_S08_060"
    INDEX 01 01:13:41
  TRACK 61 AUDIO
    TITLE "LR_black_phrase_E_S08_061"
    INDEX 01 01:15:28
  TRACK 62 AUDIO
    TITLE "LR_black_phrase_E_S08_062"
    INDEX 01 01:16:27
  TRACK 63 AUDIO
    TITLE "LR_black_phrase_E_S08_063"
    INDEX 01 01:17:52
  TRACK 64 AUDIO
    TITLE "LR_black_phrase_E_S08_064"
    INDEX 01 01:17:72
  TRACK 65 AUDIO
    TITLE "LR_black_phrase_E_S08_065"
    INDEX 01 01:20:56
  TRACK 66 AUDIO
    TITLE "LR_black_phrase_E_S08_066"
    INDEX 01 01:21:30
  TRACK 67 AUDIO
    TITLE "LR_black_phrase_E_S08_067"
    INDEX 01 01:24:17
  TRACK 68 AUDIO
    TITLE "LR_black_phrase_E_S08_068"
    INDEX 01 01:25:12
  TRACK 69 AUDIO
    TITLE "LR_black_phrase_E_S08_069"
    INDEX 01 01:26:30
  TRACK 70 AUDIO
    TITLE "LR_black_phrase_E_S08_070"
    INDEX 01 01:26:51
  TRACK 71 AUDIO
    TITLE "LR_black_phrase_E_S08_071"
    INDEX 01 01:29:34
  TRACK 72 AUDIO
    TITLE "LR_black_phrase_E_S08_072"
    INDEX 01 01:30:02
  TRACK 73 AUDIO
    TITLE "LR_black_phrase_E_S08_073"
    INDEX 01 01:32:58
  TRACK 74 AUDIO
    TITLE "LR_black_phrase_E_S08_074"
    INDEX 01 01:33:57
  TRACK 75 AUDIO
    TITLE "LR_black_phrase_E_S08_075"
    INDEX 01 01:34:68
  TRACK 76 AUDIO
    TITLE "LR_black_phrase_E_S08_076"
    INDEX 01 01:35:23
  TRACK 77 AUDIO
    TITLE "LR_black_phrase_E_S08_077"
    INDEX 01 01:37:51
  TRACK 78 AUDIO
    TITLE "LR_black_phrase_E_S08_078"
    INDEX 01 01:38:29
  TRACK 79 AUDIO
    TITLE "LR_black_phrase_E_S08_079"
    INDEX 01 01:40:57
  TRACK 80 AUDIO
    TITLE "LR_black_phrase_E_S08_080"
    INDEX 01 01:41:62
  TRACK 81 AUDIO
    TITLE "LR_black_phrase_E_S08_081"
    INDEX 01 01:42:70
  TRACK 82 AUDIO
    TITLE "LR_black_phrase_E_S08_082"
    INDEX 01 01:43:20
  TRACK 83 AUDIO
    TITLE "LR_black_phrase_E_S08_083"
    INDEX 01 01:45:41
  TRACK 84 AUDIO
    TITLE "LR_black_phrase_E_S08_084"
    INDEX 01 01:46:20
  TRACK 85 AUDIO
    TITLE "LR_black_phrase_E_S08_085"
    INDEX 01 01:48:41
  TRACK 86 AUDIO
    TITLE "LR_black_phrase_E_S08_086"
    INDEX 01 01:49:40
  TRACK 87 AUDIO
    TITLE "LR_black_phrase_E_S08_087"
    INDEX 01 01:50:42
  TRACK 88 AUDIO
    TITLE "LR_black_phrase_E_S08_088"
    INDEX 01 01:50:73
  TRACK 89 AUDIO
    TITLE "LR_black_phrase_E_S08_089"
    INDEX 01 01:53:15
  TRACK 90 AUDIO
    TITLE "LR_black_phrase_E_S08_090"
    INDEX 01 01:53:62
  TRACK 91 AUDIO
    TITLE "LR_black_phrase_E_S08_091"
    INDEX 01 01:56:05
  TRACK 92 AUDIO
    TITLE "LR_black_phrase_E_S08_092"
    INDEX 01 01:57:03
  TRACK 93 AUDIO
    TITLE "LR_black_phrase_E_S08_093"
    INDEX 01 01:58:20
  TRACK 94 AUDIO
    TITLE "LR_black_phrase_E_S08_094"
    INDEX 01 01:58:37
  TRACK 95 AUDIO
    TITLE "LR_black_phrase_E_S08_095"
    INDEX 01 02:01:00
  TRACK 96 AUDIO
    TITLE "LR_black_phrase_E_S08_096"
    INDEX 01 02:01:47
  TRACK 97 AUDIO
    TITLE "LR_black_phrase_E_S08_097"
    INDEX 01 02:04:12
  TRACK 98 AUDIO
    TITLE "LR_black_phrase_E_S08_098"
    INDEX 01 02:05:12
  TRACK 99 AUDIO
    TITLE "LR_black_phrase_E_S08_099"
    INDEX 01 02:06:15
  TRACK 100 AUDIO
    TITLE "LR_black_phrase_E_S08_100"
    INDEX 01 02:06:45
  TRACK 101 AUDIO
    TITLE "LR_black_phrase_E_S08_101"
    INDEX 01 02:08:38
  TRACK 102 AUDIO
    TITLE "LR_black_phrase_E_S08_102"
    INDEX 01 02:09:18
  TRACK 103 AUDIO
    TITLE "LR_black_phrase_E_S08_103"
    INDEX 01 02:11:11
  TRACK 104 AUDIO
    TITLE "LR_black_phrase_E_S08_104"
    INDEX 01 02:12:14
  TRACK 105 AUDIO
    TITLE "LR_black_phrase_E_S08_105"
    INDEX 01 02:13:35
  TRACK 106 AUDIO
    TITLE "LR_black_phrase_E_S08_106"
    INDEX 01 02:13:64
  TRACK 107 AUDIO
    TITLE "LR_black_phrase_E_S08_107"
    INDEX 01 02:15:53
  TRACK 108 AUDIO
    TITLE "LR_black_phrase_E_S08_108"
    INDEX 01 02:16:31
  TRACK 109 AUDIO
    TITLE "LR_black_phrase_E_S08_109"
    INDEX 01 02:18:20
  TRACK 110 AUDIO
    TITLE "LR_black_phrase_E_S08_110"
    INDEX 01 02:19:20
  TRACK 111 AUDIO
    TITLE "LR_black_phrase_E_S08_111"
    INDEX 01 02:20:33
  TRACK 112 AUDIO
    TITLE "LR_black_phrase_E_S08_112"
    INDEX 01 02:20:53
  TRACK 113 AUDIO
    TITLE "LR_black_phrase_E_S08_113"
    INDEX 01 02:22:71
  TRACK 114 AUDIO
    TITLE "LR_black_phrase_E_S08_114"
    INDEX 01 02:23:43
  TRACK 115 AUDIO
    TITLE "LR_black_phrase_E_S08_115"
    INDEX 01 02:25:62
  TRACK 116 AUDIO
    TITLE "LR_black_phrase_E_S08_116"
    INDEX 01 02:26:57
  TRACK 117 AUDIO
    TITLE "LR_black_phrase_E_S08_117"
    INDEX 01 02:28:13
  TRACK 118 AUDIO
    TITLE "LR_black_phrase_E_S08_118"
    INDEX 01 02:28:42
  TRACK 119 AUDIO
    TITLE "LR_black_phrase_E_S08_119"
    INDEX 01 02:30:49
  TRACK 120 AUDIO
    TITLE "LR_black_phrase_E_S08_120"
    INDEX 01 02:31:29
  TRACK 121 AUDIO
    TITLE "LR_black_phrase_E_S08_121"
    INDEX 01 02:33:40
